<svg width="84" height="87" viewBox="0 0 84 87" fill="none" xmlns="http://www.w3.org/2000/svg">
<path d="M10.5 21.75L21 7.25H63L73.5 21.75M10.5 21.75V72.5C10.5 74.4228 11.2375 76.2669 12.5503 77.6265C13.863 78.9862 15.6435 79.75 17.5 79.75H66.5C68.3565 79.75 70.137 78.9862 71.4497 77.6265C72.7625 76.2669 73.5 74.4228 73.5 72.5V21.75M10.5 21.75H73.5M56 36.25C56 40.0956 54.525 43.7838 51.8995 46.503C49.274 49.2223 45.713 50.75 42 50.75C38.287 50.75 34.726 49.2223 32.1005 46.503C29.475 43.7838 28 40.0956 28 36.25" stroke="#F3F3F3" stroke-width="4" stroke-linecap="round" stroke-linejoin="round"/>
</svg>
